<mxfile host="app.diagrams.net" modified="2021-08-30T10:01:00.107Z" agent="5.0 (Windows NT 10.0; Win64; x64) AppleWebKit/537.36 (KHTML, like Gecko) Chrome/92.0.4515.159 Safari/537.36" etag="c2UofLAhzqKv15ZSXKHO" version="15.0.2" type="github">
  <diagram id="3C5LhuMtIjTNXBHPkQOz" name="Page-1">
    <mxGraphModel dx="1185" dy="1837" grid="1" gridSize="10" guides="1" tooltips="1" connect="1" arrows="1" fold="1" page="1" pageScale="1" pageWidth="827" pageHeight="1169" math="0" shadow="0">
      <root>
        <mxCell id="0" />
        <mxCell id="1" parent="0" />
        <mxCell id="K6vdhoTAX8q4ufnGxZfw-1" value="" style="rounded=0;whiteSpace=wrap;html=1;comic=1;" parent="1" vertex="1">
          <mxGeometry x="40" y="-624" width="250" height="154" as="geometry" />
        </mxCell>
        <mxCell id="K6vdhoTAX8q4ufnGxZfw-2" value="" style="rounded=0;whiteSpace=wrap;html=1;comic=1;" parent="1" vertex="1">
          <mxGeometry x="40" y="-734" width="250" height="110" as="geometry" />
        </mxCell>
        <mxCell id="K6vdhoTAX8q4ufnGxZfw-3" value="&lt;h1&gt;&lt;font face=&quot;Comic Sans MS&quot;&gt;gameServer&lt;br&gt;&lt;/font&gt;&lt;/h1&gt;&lt;p&gt;&lt;font style=&quot;font-size: 14px&quot; face=&quot;Comic Sans MS&quot;&gt;&lt;i&gt;some framework &lt;/i&gt;conception&lt;b&gt;&lt;br&gt;&lt;/b&gt;&lt;/font&gt;&lt;/p&gt;" style="text;html=1;strokeColor=none;fillColor=none;spacing=5;spacingTop=-20;whiteSpace=wrap;overflow=hidden;rounded=0;comic=1;" parent="1" vertex="1">
          <mxGeometry x="40" y="-1120" width="230" height="70" as="geometry" />
        </mxCell>
        <mxCell id="K6vdhoTAX8q4ufnGxZfw-4" value="core demand" style="swimlane;fontStyle=0;childLayout=stackLayout;horizontal=1;startSize=30;horizontalStack=0;resizeParent=1;resizeParentMax=0;resizeLast=0;collapsible=1;marginBottom=0;comic=1;fontFamily=Comic Sans MS;fontSize=16;" parent="1" vertex="1">
          <mxGeometry x="40" y="-1030" width="760" height="160" as="geometry" />
        </mxCell>
        <mxCell id="K6vdhoTAX8q4ufnGxZfw-5" value="Item 1 ---&gt; create room. " style="text;strokeColor=none;fillColor=none;align=left;verticalAlign=top;spacingLeft=4;spacingRight=4;overflow=hidden;rotatable=0;points=[[0,0.5],[1,0.5]];portConstraint=eastwest;fontFamily=Comic Sans MS;fontSize=14;" parent="K6vdhoTAX8q4ufnGxZfw-4" vertex="1">
          <mxGeometry y="30" width="760" height="26" as="geometry" />
        </mxCell>
        <mxCell id="K6vdhoTAX8q4ufnGxZfw-6" value="Item 2 ---&gt; random match. " style="text;strokeColor=none;fillColor=none;align=left;verticalAlign=top;spacingLeft=4;spacingRight=4;overflow=hidden;rotatable=0;points=[[0,0.5],[1,0.5]];portConstraint=eastwest;fontFamily=Comic Sans MS;fontSize=14;" parent="K6vdhoTAX8q4ufnGxZfw-4" vertex="1">
          <mxGeometry y="56" width="760" height="26" as="geometry" />
        </mxCell>
        <mxCell id="K6vdhoTAX8q4ufnGxZfw-7" value="Item 3 ---&gt; invite friends." style="text;strokeColor=none;fillColor=none;align=left;verticalAlign=top;spacingLeft=4;spacingRight=4;overflow=hidden;rotatable=0;points=[[0,0.5],[1,0.5]];portConstraint=eastwest;fontFamily=Comic Sans MS;fontSize=14;" parent="K6vdhoTAX8q4ufnGxZfw-4" vertex="1">
          <mxGeometry y="82" width="760" height="26" as="geometry" />
        </mxCell>
        <mxCell id="K6vdhoTAX8q4ufnGxZfw-8" value="Item 4 ---&gt; state synchronization." style="text;strokeColor=none;fillColor=none;align=left;verticalAlign=top;spacingLeft=4;spacingRight=4;overflow=hidden;rotatable=0;points=[[0,0.5],[1,0.5]];portConstraint=eastwest;fontFamily=Comic Sans MS;fontSize=14;" parent="K6vdhoTAX8q4ufnGxZfw-4" vertex="1">
          <mxGeometry y="108" width="760" height="26" as="geometry" />
        </mxCell>
        <mxCell id="K6vdhoTAX8q4ufnGxZfw-9" value="..." style="text;strokeColor=none;fillColor=none;align=left;verticalAlign=top;spacingLeft=4;spacingRight=4;overflow=hidden;rotatable=0;points=[[0,0.5],[1,0.5]];portConstraint=eastwest;fontFamily=Comic Sans MS;fontSize=14;" parent="K6vdhoTAX8q4ufnGxZfw-4" vertex="1">
          <mxGeometry y="134" width="760" height="26" as="geometry" />
        </mxCell>
        <mxCell id="K6vdhoTAX8q4ufnGxZfw-10" value="" style="line;strokeWidth=2;html=1;comic=1;" parent="1" vertex="1">
          <mxGeometry x="41" y="-824" width="760" height="10" as="geometry" />
        </mxCell>
        <mxCell id="K6vdhoTAX8q4ufnGxZfw-11" value="非游戏场景服务器" style="swimlane;fontStyle=0;childLayout=stackLayout;horizontal=1;startSize=26;horizontalStack=0;resizeParent=1;resizeParentMax=0;resizeLast=0;collapsible=1;marginBottom=0;comic=1;strokeWidth=1;fontSize=15;" parent="1" vertex="1">
          <mxGeometry x="130" y="-760" width="160" height="290" as="geometry" />
        </mxCell>
        <mxCell id="K6vdhoTAX8q4ufnGxZfw-12" value="register" style="text;strokeColor=none;fillColor=none;align=center;verticalAlign=top;spacingLeft=4;spacingRight=4;overflow=hidden;rotatable=0;points=[[0,0.5],[1,0.5]];portConstraint=eastwest;fontFamily=Comic Sans MS;fontSize=14;" parent="K6vdhoTAX8q4ufnGxZfw-11" vertex="1">
          <mxGeometry y="26" width="160" height="26" as="geometry" />
        </mxCell>
        <mxCell id="K6vdhoTAX8q4ufnGxZfw-13" value="login" style="text;strokeColor=none;fillColor=none;align=center;verticalAlign=top;spacingLeft=4;spacingRight=4;overflow=hidden;rotatable=0;points=[[0,0.5],[1,0.5]];portConstraint=eastwest;fontFamily=Comic Sans MS;fontSize=14;" parent="K6vdhoTAX8q4ufnGxZfw-11" vertex="1">
          <mxGeometry y="52" width="160" height="28" as="geometry" />
        </mxCell>
        <mxCell id="K6vdhoTAX8q4ufnGxZfw-14" value="online" style="text;strokeColor=none;fillColor=none;align=center;verticalAlign=top;spacingLeft=4;spacingRight=4;overflow=hidden;rotatable=0;points=[[0,0.5],[1,0.5]];portConstraint=eastwest;fontFamily=Comic Sans MS;fontSize=14;" parent="K6vdhoTAX8q4ufnGxZfw-11" vertex="1">
          <mxGeometry y="80" width="160" height="28" as="geometry" />
        </mxCell>
        <mxCell id="K6vdhoTAX8q4ufnGxZfw-15" value="offline" style="text;strokeColor=none;fillColor=none;align=center;verticalAlign=top;spacingLeft=4;spacingRight=4;overflow=hidden;rotatable=0;points=[[0,0.5],[1,0.5]];portConstraint=eastwest;fontFamily=Comic Sans MS;fontSize=14;" parent="K6vdhoTAX8q4ufnGxZfw-11" vertex="1">
          <mxGeometry y="108" width="160" height="26" as="geometry" />
        </mxCell>
        <mxCell id="K6vdhoTAX8q4ufnGxZfw-16" value="createRoom" style="text;strokeColor=none;fillColor=none;align=center;verticalAlign=top;spacingLeft=4;spacingRight=4;overflow=hidden;rotatable=0;points=[[0,0.5],[1,0.5]];portConstraint=eastwest;fontFamily=Comic Sans MS;fontSize=14;" parent="K6vdhoTAX8q4ufnGxZfw-11" vertex="1">
          <mxGeometry y="134" width="160" height="26" as="geometry" />
        </mxCell>
        <mxCell id="K6vdhoTAX8q4ufnGxZfw-17" value="joinRoom" style="text;strokeColor=none;fillColor=none;align=center;verticalAlign=top;spacingLeft=4;spacingRight=4;overflow=hidden;rotatable=0;points=[[0,0.5],[1,0.5]];portConstraint=eastwest;fontFamily=Comic Sans MS;fontSize=14;" parent="K6vdhoTAX8q4ufnGxZfw-11" vertex="1">
          <mxGeometry y="160" width="160" height="26" as="geometry" />
        </mxCell>
        <mxCell id="K6vdhoTAX8q4ufnGxZfw-18" value="leaveRoom" style="text;strokeColor=none;fillColor=none;align=center;verticalAlign=top;spacingLeft=4;spacingRight=4;overflow=hidden;rotatable=0;points=[[0,0.5],[1,0.5]];portConstraint=eastwest;fontFamily=Comic Sans MS;fontSize=14;" parent="K6vdhoTAX8q4ufnGxZfw-11" vertex="1">
          <mxGeometry y="186" width="160" height="26" as="geometry" />
        </mxCell>
        <mxCell id="K6vdhoTAX8q4ufnGxZfw-19" value="removePlayer" style="text;strokeColor=none;fillColor=none;align=center;verticalAlign=top;spacingLeft=4;spacingRight=4;overflow=hidden;rotatable=0;points=[[0,0.5],[1,0.5]];portConstraint=eastwest;fontFamily=Comic Sans MS;fontSize=14;" parent="K6vdhoTAX8q4ufnGxZfw-11" vertex="1">
          <mxGeometry y="212" width="160" height="26" as="geometry" />
        </mxCell>
        <mxCell id="K6vdhoTAX8q4ufnGxZfw-20" value="destroyRoom" style="text;strokeColor=none;fillColor=none;align=center;verticalAlign=top;spacingLeft=4;spacingRight=4;overflow=hidden;rotatable=0;points=[[0,0.5],[1,0.5]];portConstraint=eastwest;fontFamily=Comic Sans MS;fontSize=14;" parent="K6vdhoTAX8q4ufnGxZfw-11" vertex="1">
          <mxGeometry y="238" width="160" height="26" as="geometry" />
        </mxCell>
        <mxCell id="K6vdhoTAX8q4ufnGxZfw-21" value="..." style="text;strokeColor=none;fillColor=none;align=center;verticalAlign=top;spacingLeft=4;spacingRight=4;overflow=hidden;rotatable=0;points=[[0,0.5],[1,0.5]];portConstraint=eastwest;fontFamily=Comic Sans MS;fontSize=14;" parent="K6vdhoTAX8q4ufnGxZfw-11" vertex="1">
          <mxGeometry y="264" width="160" height="26" as="geometry" />
        </mxCell>
        <mxCell id="K6vdhoTAX8q4ufnGxZfw-22" value="&lt;font style=&quot;font-size: 15px&quot;&gt;http&lt;/font&gt;" style="text;html=1;strokeColor=none;fillColor=none;align=center;verticalAlign=middle;whiteSpace=wrap;rounded=0;comic=1;" parent="1" vertex="1">
          <mxGeometry x="65" y="-689" width="40" height="20" as="geometry" />
        </mxCell>
        <mxCell id="K6vdhoTAX8q4ufnGxZfw-23" value="&lt;font style=&quot;font-size: 15px&quot;&gt;websocket&lt;/font&gt;" style="text;html=1;strokeColor=none;fillColor=none;align=center;verticalAlign=middle;whiteSpace=wrap;rounded=0;comic=1;" parent="1" vertex="1">
          <mxGeometry x="65" y="-557" width="40" height="20" as="geometry" />
        </mxCell>
        <mxCell id="K6vdhoTAX8q4ufnGxZfw-24" value="&lt;h1&gt;&lt;span style=&quot;font-weight: normal&quot;&gt;&lt;font face=&quot;Comic Sans MS&quot; style=&quot;font-size: 16px&quot;&gt;Random matching&lt;/font&gt;&lt;/span&gt;&lt;/h1&gt;" style="text;html=1;strokeColor=none;fillColor=none;spacing=5;spacingTop=-20;whiteSpace=wrap;overflow=hidden;rounded=0;comic=1;" parent="1" vertex="1">
          <mxGeometry x="40" y="-400" width="190" height="120" as="geometry" />
        </mxCell>
        <mxCell id="K6vdhoTAX8q4ufnGxZfw-25" value="" style="ellipse;whiteSpace=wrap;html=1;rounded=0;comic=1;align=center;" parent="1" vertex="1">
          <mxGeometry x="320" y="-320" width="360" height="320" as="geometry" />
        </mxCell>
        <mxCell id="K6vdhoTAX8q4ufnGxZfw-26" value="&lt;font face=&quot;Comic Sans MS&quot; style=&quot;font-size: 16px ; font-weight: normal&quot;&gt;match pool (1v1)&lt;/font&gt;" style="text;strokeColor=none;fillColor=none;html=1;fontSize=24;fontStyle=1;verticalAlign=middle;align=center;rounded=0;comic=1;" parent="1" vertex="1">
          <mxGeometry x="440" y="-370" width="100" height="40" as="geometry" />
        </mxCell>
        <mxCell id="K6vdhoTAX8q4ufnGxZfw-27" value="&lt;font face=&quot;Comic Sans MS&quot; style=&quot;font-size: 14px&quot;&gt;sorted_set&lt;/font&gt;" style="text;html=1;strokeColor=none;fillColor=none;align=center;verticalAlign=middle;whiteSpace=wrap;rounded=0;comic=1;" parent="1" vertex="1">
          <mxGeometry x="460" y="-263" width="60" height="20" as="geometry" />
        </mxCell>
        <mxCell id="K6vdhoTAX8q4ufnGxZfw-28" value="&lt;span style=&quot;font-weight: normal&quot;&gt;&lt;font face=&quot;Comic Sans MS&quot;&gt;member&lt;/font&gt;&lt;/span&gt;&amp;nbsp;&lt;div&gt;&lt;/div&gt;" style="shape=table;startSize=30;container=1;collapsible=1;childLayout=tableLayout;fixedRows=1;rowLines=0;fontStyle=1;align=right;resizeLast=1;rounded=0;comic=1;html=1;" parent="1" vertex="1">
          <mxGeometry x="355" y="-225" width="290" height="135" as="geometry" />
        </mxCell>
        <mxCell id="K6vdhoTAX8q4ufnGxZfw-29" value="" style="shape=partialRectangle;collapsible=0;dropTarget=0;pointerEvents=0;fillColor=none;top=0;left=0;bottom=0;right=0;points=[[0,0.5],[1,0.5]];portConstraint=eastwest;" parent="K6vdhoTAX8q4ufnGxZfw-28" vertex="1">
          <mxGeometry y="30" width="290" height="30" as="geometry" />
        </mxCell>
        <mxCell id="K6vdhoTAX8q4ufnGxZfw-30" value="" style="shape=partialRectangle;connectable=0;fillColor=none;top=0;left=0;bottom=0;right=0;fontStyle=0;overflow=hidden;align=right;fontFamily=Comic Sans MS;" parent="K6vdhoTAX8q4ufnGxZfw-29" vertex="1">
          <mxGeometry width="225" height="30" as="geometry" />
        </mxCell>
        <mxCell id="K6vdhoTAX8q4ufnGxZfw-31" value="" style="shape=partialRectangle;connectable=0;fillColor=none;top=0;left=0;bottom=0;right=0;align=center;spacingLeft=6;fontStyle=0;overflow=hidden;fontFamily=Comic Sans MS;" parent="K6vdhoTAX8q4ufnGxZfw-29" vertex="1">
          <mxGeometry x="225" width="65" height="30" as="geometry" />
        </mxCell>
        <mxCell id="K6vdhoTAX8q4ufnGxZfw-32" value="" style="shape=partialRectangle;collapsible=0;dropTarget=0;pointerEvents=0;fillColor=none;top=0;left=0;bottom=0;right=0;points=[[0,0.5],[1,0.5]];portConstraint=eastwest;" parent="K6vdhoTAX8q4ufnGxZfw-28" vertex="1">
          <mxGeometry y="60" width="290" height="35" as="geometry" />
        </mxCell>
        <mxCell id="K6vdhoTAX8q4ufnGxZfw-33" value="" style="shape=partialRectangle;connectable=0;fillColor=none;top=0;left=0;bottom=0;right=0;editable=1;overflow=hidden;" parent="K6vdhoTAX8q4ufnGxZfw-32" vertex="1">
          <mxGeometry width="225" height="35" as="geometry" />
        </mxCell>
        <mxCell id="K6vdhoTAX8q4ufnGxZfw-34" value="" style="shape=partialRectangle;connectable=0;fillColor=none;top=0;left=0;bottom=0;right=0;align=left;spacingLeft=6;overflow=hidden;fontFamily=Comic Sans MS;" parent="K6vdhoTAX8q4ufnGxZfw-32" vertex="1">
          <mxGeometry x="225" width="65" height="35" as="geometry" />
        </mxCell>
        <mxCell id="K6vdhoTAX8q4ufnGxZfw-35" value="..." style="rounded=0;whiteSpace=wrap;html=1;comic=1;align=center;" parent="1" vertex="1">
          <mxGeometry x="355" y="-165" width="75" height="75" as="geometry" />
        </mxCell>
        <mxCell id="K6vdhoTAX8q4ufnGxZfw-36" value="key" style="rounded=0;whiteSpace=wrap;html=1;comic=1;fontFamily=Comic Sans MS;align=center;" parent="1" vertex="1">
          <mxGeometry x="355" y="-225" width="75" height="30" as="geometry" />
        </mxCell>
        <mxCell id="K6vdhoTAX8q4ufnGxZfw-37" value="score" style="rounded=0;whiteSpace=wrap;html=1;comic=1;fontFamily=Comic Sans MS;align=center;" parent="1" vertex="1">
          <mxGeometry x="430" y="-225" width="150" height="30" as="geometry" />
        </mxCell>
        <mxCell id="K6vdhoTAX8q4ufnGxZfw-38" value="&lt;span style=&quot;text-align: right&quot;&gt;level + timestamp%60&amp;nbsp;&lt;/span&gt;" style="rounded=0;whiteSpace=wrap;html=1;comic=1;fontFamily=Comic Sans MS;strokeWidth=1;align=center;" parent="1" vertex="1">
          <mxGeometry x="431" y="-195" width="149" height="30" as="geometry" />
        </mxCell>
        <mxCell id="K6vdhoTAX8q4ufnGxZfw-39" value="...game..." style="rounded=0;whiteSpace=wrap;html=1;comic=1;fontFamily=Comic Sans MS;strokeWidth=1;align=center;" parent="1" vertex="1">
          <mxGeometry x="355" y="-195" width="76" height="30" as="geometry" />
        </mxCell>
        <mxCell id="K6vdhoTAX8q4ufnGxZfw-40" value="uuid" style="rounded=0;whiteSpace=wrap;html=1;comic=1;fontFamily=Comic Sans MS;strokeWidth=1;align=center;" parent="1" vertex="1">
          <mxGeometry x="580" y="-195" width="65" height="30" as="geometry" />
        </mxCell>
        <mxCell id="sgj28CJbjvYmIm8fxRwS-1" value="" style="shape=table;html=1;whiteSpace=wrap;startSize=0;container=1;collapsible=0;childLayout=tableLayout;" vertex="1" parent="1">
          <mxGeometry x="230" y="160" width="340" height="340" as="geometry" />
        </mxCell>
        <mxCell id="sgj28CJbjvYmIm8fxRwS-2" value="" style="shape=partialRectangle;html=1;whiteSpace=wrap;collapsible=0;dropTarget=0;pointerEvents=0;fillColor=none;top=0;left=0;bottom=0;right=0;points=[[0,0.5],[1,0.5]];portConstraint=eastwest;" vertex="1" parent="sgj28CJbjvYmIm8fxRwS-1">
          <mxGeometry width="340" height="85" as="geometry" />
        </mxCell>
        <mxCell id="sgj28CJbjvYmIm8fxRwS-3" value="" style="shape=partialRectangle;html=1;whiteSpace=wrap;connectable=0;fillColor=none;top=0;left=0;bottom=0;right=0;overflow=hidden;pointerEvents=1;" vertex="1" parent="sgj28CJbjvYmIm8fxRwS-2">
          <mxGeometry width="113" height="85" as="geometry" />
        </mxCell>
        <mxCell id="sgj28CJbjvYmIm8fxRwS-4" value="" style="shape=partialRectangle;html=1;whiteSpace=wrap;connectable=0;fillColor=none;top=0;left=0;bottom=0;right=0;overflow=hidden;pointerEvents=1;" vertex="1" parent="sgj28CJbjvYmIm8fxRwS-2">
          <mxGeometry x="113" width="114" height="85" as="geometry" />
        </mxCell>
        <mxCell id="sgj28CJbjvYmIm8fxRwS-5" value="" style="shape=partialRectangle;html=1;whiteSpace=wrap;connectable=0;fillColor=none;top=0;left=0;bottom=0;right=0;overflow=hidden;pointerEvents=1;" vertex="1" parent="sgj28CJbjvYmIm8fxRwS-2">
          <mxGeometry x="227" width="113" height="85" as="geometry" />
        </mxCell>
        <mxCell id="sgj28CJbjvYmIm8fxRwS-6" value="" style="shape=partialRectangle;html=1;whiteSpace=wrap;collapsible=0;dropTarget=0;pointerEvents=0;fillColor=none;top=0;left=0;bottom=0;right=0;points=[[0,0.5],[1,0.5]];portConstraint=eastwest;" vertex="1" parent="sgj28CJbjvYmIm8fxRwS-1">
          <mxGeometry y="85" width="340" height="85" as="geometry" />
        </mxCell>
        <mxCell id="sgj28CJbjvYmIm8fxRwS-7" value="" style="shape=partialRectangle;html=1;whiteSpace=wrap;connectable=0;fillColor=none;top=0;left=0;bottom=0;right=0;overflow=hidden;pointerEvents=1;" vertex="1" parent="sgj28CJbjvYmIm8fxRwS-6">
          <mxGeometry width="113" height="85" as="geometry" />
        </mxCell>
        <mxCell id="sgj28CJbjvYmIm8fxRwS-8" value="" style="shape=partialRectangle;html=1;whiteSpace=wrap;connectable=0;fillColor=none;top=0;left=0;bottom=0;right=0;overflow=hidden;pointerEvents=1;" vertex="1" parent="sgj28CJbjvYmIm8fxRwS-6">
          <mxGeometry x="113" width="114" height="85" as="geometry" />
        </mxCell>
        <mxCell id="sgj28CJbjvYmIm8fxRwS-9" value="" style="shape=partialRectangle;html=1;whiteSpace=wrap;connectable=0;fillColor=none;top=0;left=0;bottom=0;right=0;overflow=hidden;pointerEvents=1;" vertex="1" parent="sgj28CJbjvYmIm8fxRwS-6">
          <mxGeometry x="227" width="113" height="85" as="geometry" />
        </mxCell>
        <mxCell id="sgj28CJbjvYmIm8fxRwS-10" value="" style="shape=partialRectangle;html=1;whiteSpace=wrap;collapsible=0;dropTarget=0;pointerEvents=0;fillColor=none;top=0;left=0;bottom=0;right=0;points=[[0,0.5],[1,0.5]];portConstraint=eastwest;" vertex="1" parent="sgj28CJbjvYmIm8fxRwS-1">
          <mxGeometry y="170" width="340" height="85" as="geometry" />
        </mxCell>
        <mxCell id="sgj28CJbjvYmIm8fxRwS-11" value="" style="shape=partialRectangle;html=1;whiteSpace=wrap;connectable=0;fillColor=none;top=0;left=0;bottom=0;right=0;overflow=hidden;pointerEvents=1;" vertex="1" parent="sgj28CJbjvYmIm8fxRwS-10">
          <mxGeometry width="113" height="85" as="geometry" />
        </mxCell>
        <mxCell id="sgj28CJbjvYmIm8fxRwS-12" value="" style="shape=partialRectangle;html=1;whiteSpace=wrap;connectable=0;fillColor=none;top=0;left=0;bottom=0;right=0;overflow=hidden;pointerEvents=1;" vertex="1" parent="sgj28CJbjvYmIm8fxRwS-10">
          <mxGeometry x="113" width="114" height="85" as="geometry" />
        </mxCell>
        <mxCell id="sgj28CJbjvYmIm8fxRwS-13" value="" style="shape=partialRectangle;html=1;whiteSpace=wrap;connectable=0;fillColor=none;top=0;left=0;bottom=0;right=0;overflow=hidden;pointerEvents=1;" vertex="1" parent="sgj28CJbjvYmIm8fxRwS-10">
          <mxGeometry x="227" width="113" height="85" as="geometry" />
        </mxCell>
        <mxCell id="sgj28CJbjvYmIm8fxRwS-14" value="" style="shape=partialRectangle;html=1;whiteSpace=wrap;collapsible=0;dropTarget=0;pointerEvents=0;fillColor=none;top=0;left=0;bottom=0;right=0;points=[[0,0.5],[1,0.5]];portConstraint=eastwest;" vertex="1" parent="sgj28CJbjvYmIm8fxRwS-1">
          <mxGeometry y="255" width="340" height="85" as="geometry" />
        </mxCell>
        <mxCell id="sgj28CJbjvYmIm8fxRwS-15" value="" style="shape=partialRectangle;html=1;whiteSpace=wrap;connectable=0;fillColor=none;top=0;left=0;bottom=0;right=0;overflow=hidden;pointerEvents=1;" vertex="1" parent="sgj28CJbjvYmIm8fxRwS-14">
          <mxGeometry width="113" height="85" as="geometry" />
        </mxCell>
        <mxCell id="sgj28CJbjvYmIm8fxRwS-16" value="" style="shape=partialRectangle;html=1;whiteSpace=wrap;connectable=0;fillColor=none;top=0;left=0;bottom=0;right=0;overflow=hidden;pointerEvents=1;" vertex="1" parent="sgj28CJbjvYmIm8fxRwS-14">
          <mxGeometry x="113" width="114" height="85" as="geometry" />
        </mxCell>
        <mxCell id="sgj28CJbjvYmIm8fxRwS-17" value="" style="shape=partialRectangle;html=1;whiteSpace=wrap;connectable=0;fillColor=none;top=0;left=0;bottom=0;right=0;overflow=hidden;pointerEvents=1;" vertex="1" parent="sgj28CJbjvYmIm8fxRwS-14">
          <mxGeometry x="227" width="113" height="85" as="geometry" />
        </mxCell>
        <mxCell id="sgj28CJbjvYmIm8fxRwS-18" value="" style="rounded=1;whiteSpace=wrap;html=1;strokeWidth=2;fillWeight=4;hachureGap=8;hachureAngle=45;fillColor=#1ba1e2;sketch=1;" vertex="1" parent="1">
          <mxGeometry x="200" y="120" width="60" height="80" as="geometry" />
        </mxCell>
        <mxCell id="sgj28CJbjvYmIm8fxRwS-20" value="" style="rounded=1;whiteSpace=wrap;html=1;strokeWidth=2;fillWeight=4;hachureGap=8;hachureAngle=45;fillColor=#1ba1e2;sketch=1;" vertex="1" parent="1">
          <mxGeometry x="312" y="120" width="60" height="80" as="geometry" />
        </mxCell>
        <mxCell id="sgj28CJbjvYmIm8fxRwS-21" value="" style="rounded=1;whiteSpace=wrap;html=1;strokeWidth=2;fillWeight=4;hachureGap=8;hachureAngle=45;fillColor=#1ba1e2;sketch=1;" vertex="1" parent="1">
          <mxGeometry x="428" y="120" width="60" height="80" as="geometry" />
        </mxCell>
      </root>
    </mxGraphModel>
  </diagram>
</mxfile>
